<svg xmlns="http://www.w3.org/2000/svg" width="494" height="125" viewBox="0 0 494 125" version="1.1"><path d="M 326.655 3.829 C 325.155 5.486, 325 11.058, 325 63.174 C 325 117.625, 325.097 120.778, 326.829 122.345 C 328.499 123.856, 335.656 124, 409.174 124 C 485.907 124, 489.768 123.914, 491.345 122.171 C 492.845 120.514, 493 114.942, 493 62.826 C 493 8.375, 492.903 5.222, 491.171 3.655 C 489.501 2.144, 482.344 2, 408.826 2 C 332.093 2, 328.232 2.086, 326.655 3.829 M 353 63 L 353 114 418 114 L 483 114 483 63 L 483 12 418 12 L 353 12 353 63 M 336.040 60.452 C 334.485 62.325, 335.028 64.989, 337.250 66.388 C 340.715 68.570, 344.617 63.653, 341.960 60.452 C 340.416 58.591, 337.584 58.591, 336.040 60.452" stroke="none" fill="#23abdb" fill-rule="evenodd"/><path d="M 243 21 C 243 21.550, 244.125 22, 245.500 22 L 248 22 248 58 L 248 94 242.500 94 L 237 94 237 75.901 C 237 61.066, 236.699 57.168, 235.330 54.283 C 232.842 49.041, 228.781 47.008, 220.785 47.004 C 214.697 47, 213.739 47.290, 210.535 50.104 L 207 53.207 207 50.604 L 207 48 194 48 C 186 48, 181 48.385, 181 49 C 181 49.550, 182.350 50, 184 50 L 187 50 187 72 L 187 94 184 94 C 182.350 94, 181 94.450, 181 95 C 181 95.622, 186.667 96, 196 96 C 205.333 96, 211 95.622, 211 95 C 211 94.450, 210.072 94, 208.937 94 C 206.918 94, 206.880 93.617, 207.187 76.070 C 207.473 59.666, 207.679 57.899, 209.608 55.320 C 210.893 53.600, 212.649 52.500, 214.108 52.500 L 216.500 52.500 216.770 73.250 C 217.034 93.492, 216.991 94, 215.020 94 C 213.909 94, 213 94.450, 213 95 C 213 95.644, 223.667 96, 243 96 C 262.333 96, 273 95.644, 273 95 C 273 94.450, 271.875 94, 270.500 94 L 268 94 268 83.059 C 268 77.041, 268.370 71.889, 268.823 71.610 C 269.443 71.227, 276.897 85.822, 279.833 93.166 C 280.017 93.625, 279.229 94, 278.083 94 C 276.938 94, 276 94.450, 276 95 C 276 95.621, 281.500 96, 290.500 96 C 299.500 96, 305 95.621, 305 95 C 305 94.450, 304.212 93.991, 303.250 93.980 C 302.005 93.966, 298.977 89.090, 292.754 77.075 L 284.009 60.190 289.890 55.095 C 294.625 50.993, 296.476 50, 299.386 50 C 301.374 50, 303 49.550, 303 49 C 303 48.397, 298.833 48, 292.500 48 C 286.167 48, 282 48.397, 282 49 C 282 49.550, 284.069 50, 286.599 50 L 291.197 50 279.849 59.452 L 268.500 68.905 268.233 44.452 L 267.965 20 255.483 20 C 247.828 20, 243 20.387, 243 21 M 54.213 26.159 C 54.456 26.897, 56.082 27.641, 57.827 27.813 L 61 28.127 61 61.063 L 61 94 57.500 94 C 55.575 94, 54 94.450, 54 95 C 54 95.627, 60.333 96, 71 96 C 81.667 96, 88 95.627, 88 95 C 88 94.450, 86.650 94, 85 94 L 82 94 82 77.500 L 82 61 85.878 61 C 91.641 61, 92.297 62.440, 92.965 76.541 C 93.456 86.919, 93.885 89.372, 95.622 91.710 C 98.615 95.741, 101.680 96.969, 108.800 96.985 C 118.624 97.008, 121.879 94.494, 123.549 85.589 C 124.079 82.766, 123.902 82, 122.723 82 C 121.808 82, 120.973 83.328, 120.585 85.400 C 119.917 88.959, 117.722 91.564, 116.189 90.617 C 115.695 90.311, 115.053 85.402, 114.762 79.707 C 114.429 73.189, 113.651 68.225, 112.661 66.311 C 111.188 63.463, 105.889 60.039, 102.849 59.969 C 102.107 59.952, 103.933 58.940, 106.907 57.719 C 114.098 54.768, 116.314 51.622, 116.757 43.739 C 117.232 35.298, 115.146 31.323, 108.500 28 C 103.637 25.568, 102.821 25.491, 78.636 25.159 C 58.182 24.879, 53.851 25.056, 54.213 26.159 M 82 43 L 82 58 84.550 58 C 92.358 58, 95.490 52.379, 94.841 39.531 C 94.382 30.429, 92.496 28, 85.889 28 L 82 28 82 43 M 373 42 C 373 42.550, 373.900 43, 375 43 C 376.925 43, 377 43.668, 377.004 60.750 C 377.008 80.637, 377.709 83.163, 384.206 86.693 C 388.838 89.210, 403.459 89.240, 407.273 86.741 C 412.576 83.266, 413.371 80.108, 413.816 60.750 C 414.143 46.468, 414.494 43, 415.612 43 C 416.375 43, 417 42.550, 417 42 C 417 41.450, 414.498 41, 411.441 41 C 407.990 41, 406.116 41.379, 406.500 42 C 406.840 42.550, 407.991 43, 409.059 43 C 410.898 43, 411 43.824, 410.994 58.750 C 410.988 76.328, 410.130 80.966, 406.331 83.955 C 402.995 86.578, 397.017 86.643, 393.861 84.090 C 391.546 82.218, 391.494 81.797, 391.191 62.590 C 390.887 43.378, 390.921 43, 392.941 43 C 394.073 43, 395 42.550, 395 42 C 395 41.394, 390.667 41, 384 41 C 377.333 41, 373 41.394, 373 42 M 418.500 42 C 418.840 42.550, 419.991 43, 421.059 43 C 422.920 43, 423 43.885, 423 64.500 C 423 85.115, 422.920 86, 421.059 86 C 419.991 86, 418.840 86.450, 418.500 87 C 418.100 87.648, 422.676 88, 431.500 88 C 440.324 88, 444.900 87.648, 444.500 87 C 444.160 86.450, 442.334 86, 440.441 86 L 437 86 437 77.500 L 437 69 440.318 69 C 445.637 69, 453.415 66.251, 456.059 63.438 C 458.131 61.232, 458.500 59.855, 458.500 54.333 C 458.500 48.475, 458.226 47.591, 455.748 45.460 C 454.235 44.158, 451.310 42.625, 449.248 42.052 C 444.329 40.686, 417.660 40.641, 418.500 42 M 437 55 C 437 66.217, 437.127 67, 438.943 67 C 442.443 67, 444 63.217, 444 54.712 C 444 45.688, 442.959 43, 439.465 43 L 437 43 437 55 M 17.748 48.427 C 6.093 52.586, 0.124 64.647, 2.960 78.308 C 5.521 90.644, 14.206 96.990, 28.500 96.968 C 34.158 96.960, 37.705 96.409, 40.616 95.087 C 45.105 93.048, 49.450 88.080, 50.531 83.750 C 51.566 79.602, 48.692 80.198, 47.154 84.451 C 45.189 89.885, 40.762 93, 35.005 93 C 32.342 93, 29.435 92.720, 28.545 92.379 C 25.750 91.306, 23.809 85.979, 23.252 77.846 L 22.714 70 36.996 70 L 51.278 70 50.730 63.964 C 50.068 56.653, 46.733 51.691, 40.616 48.913 C 35.662 46.663, 23.419 46.403, 17.748 48.427 M 138.500 48.204 C 126.430 52.411, 126.506 68, 138.597 68 C 141.818 68, 146.581 65.535, 147.379 63.455 C 148.671 60.087, 147.998 56.243, 145.867 54.828 C 142.739 52.750, 144.124 49, 148.020 49 C 150.503 49, 151.051 49.524, 151.947 52.750 C 152.520 54.813, 152.991 59.987, 152.994 64.250 L 153 72 148.049 72 C 139.939 72, 132.898 73.948, 129.797 77.050 C 127.503 79.344, 127 80.719, 127 84.701 C 127 93.111, 131.703 97, 141.874 97 C 146.836 97, 148.366 96.563, 150.914 94.419 C 153.775 92.011, 154.093 91.950, 155.646 93.503 C 158.174 96.031, 161.553 97, 167.843 97 C 174.510 97, 177.565 95.286, 179.606 90.401 C 181.218 86.543, 181.457 81, 180.012 81 C 179.468 81, 178.746 82.738, 178.406 84.862 C 177.615 89.810, 176.581 91.437, 174.688 90.711 C 173.442 90.233, 173.113 87.241, 172.829 73.815 C 172.426 54.791, 171.529 52.051, 164.684 48.943 C 159.945 46.792, 143.854 46.337, 138.500 48.204 M 24.449 52.468 C 23.652 54.375, 23 58.650, 23 61.968 L 23 68 27.500 68 L 32 68 32 60.434 C 32 56.273, 31.534 51.998, 30.965 50.934 C 29.279 47.784, 26.093 48.534, 24.449 52.468 M 149.480 75.391 C 146.931 77.255, 145.994 89.921, 148.266 91.806 C 150.853 93.953, 152.464 90.456, 152.855 81.847 C 153.221 73.798, 152.789 72.972, 149.480 75.391" stroke="none" fill="#2c7ccb" fill-rule="evenodd"/></svg>