<svg xmlns="http://www.w3.org/2000/svg" viewBox="84.2678 256.8562866666667 1844 379.5777777777778" style="max-height: 500px" width="1844" height="379.5777777777778"><path fill="#fff" d="M254.762 277.953c17.653 9.644 25.02 31.927 30.4 50.052C288.643 340.449 291.84 353.11 293 366l2.992-1.094 3.883-1.406 1.973-.723C306.773 361 306.773 361 309 361l.25-2.625c1.48-6.657 5.5-10.438 10.75-14.375 5.883-3.323 11.772-3.586 18.25-1.875 4.343 1.497 6.883 3.189 9.75 6.875l1.406 1.61c4.089 5.314 4.331 10.47 4.078 17.042-.906 6.265-3.875 10.08-8.484 14.223-6.68 4.732-13 4.899-21 4.125-5.955-1.672-9.522-5-13-10v-2l-2.992 1.094-3.883 1.406-1.973.723C297.227 379 297.227 379 295 379l.367 1.93c1.015 5.886 1.68 11.357 1.649 17.336-.347 11.4-.347 11.4 3.399 21.81 3.614 3.441 7.877 5.584 12.336 7.742 3.88 2.039 7.273 4.718 10.749 7.37q1.89 1.398 3.781 2.792L330 440c20.635-9.448 44.258-37.02 52.16-58.094 1.173-4.059 1.31-6.675.84-10.906-3.561-4.818-7.348-6.432-13.16-7.336A220 220 0 0 0 364 363v-13c11.044-.473 20.52 1.47 29 9 4.844 5.484 4.6 12.27 4.371 19.266C394.766 404.483 366.688 428.709 348 445a308 308 0 0 1-5 4q3.248 3.033 6.5 6.063l1.959 1.826c3.145 2.924 6.304 5.798 9.603 8.548 15.19 13.21 34.059 33.515 36.223 54.301.371 7.489-.813 13.158-5.285 19.262-6.274 6.58-14.67 8.993-23.566 9.469q-2.998.05-5.997.031l-3.283-.02c-22.402-.491-45.497-7.01-66.154-15.48a318 318 0 0 0-1.312 7.688l-.417 2.185c-.425 2.436-.425 2.436-.271 6.127 2.239 2.88 2.239 2.88 5 5 3.53 6.176 5.198 11.843 3.54 18.984-2.118 6.426-5.748 11.195-11.415 14.891-8.492 3.057-16.221 2.388-24.375-1.375-4.887-4.443-8.174-9.124-9.3-15.727-.3-7.323.77-13.089 5.55-18.773 5.989-5.511 9.597-7 18-7l2-17-5.914-2.738-9.67-4.481q-2.853-1.32-5.705-2.644l-3.46-1.603C252 515 252 515 248.893 513.179c-2.787-1.47-2.787-1.47-5.393-.538L241 514l-2.875 1.297L235 516.75l-3.437 1.594L228 520a7353 7353 0 0 1-7 3.25c-1.031.48-2.062.96-3.125 1.453A163 163 0 0 1 210 528c5.808 42.238 5.808 42.238 27.746 77.52 3.035 2.02 5.25 2.48 8.879 2.48 6.28-1.861 9.025-5.54 12.375-11 5.027.457 8.149 2.992 12 6-1.41 4.37-3.505 6.909-6.75 10.125l-2.547 2.57c-6.042 5.152-11.93 6.435-19.703 6.305-9.045-1.138-15.44-7.514-20.906-14.402C207.87 588.093 197 557.666 197 534l-2.316.763C165.216 544.434 165.216 544.434 153 547l-2.433.529c-7.083 1.433-13.913 1.806-21.13 1.784l-3.208.048C115.553 549.368 106.18 547.18 98 540c-4.642-5.925-5.89-12.625-5-20 2.374-9.636 6.036-18.009 12-26l1.28-1.72c11.845-15.712 25.943-30.474 41.72-42.28a585 585 0 0 0-3.687-3.812l-2.075-2.145c-3.441-3.141-5.751-4.974-10.508-5.195l-3.542.214c-6.042.108-10.452-.108-15.188-4.062-5.525-5.934-8.467-11.496-8.25-19.664.709-6.62 3.491-11.683 8.25-16.336 5.637-4.406 11.678-4.673 18.656-4.441 6.906.911 10.588 4.218 14.781 9.566 4.239 5.936 4.1 11.779 3.563 18.875-.755 2.885-1.744 5.28-3 8l1.734.773c2.508 1.358 4.399 2.947 6.516 4.852l2.14 1.914L159 440c6.624-4.266 12.93-8.869 19.12-13.742C180 425 180 425 182.759 423.756c3.325-1.639 5.664-3.076 8.242-5.756 1.777-5.646 1.953-11.18 2.125-17.062q.121-2.334.258-4.667c.165-2.86.296-5.717.403-8.58A74 74 0 0 1 195 378l-2.178-.396c-2.75-.589-5.31-1.37-7.97-2.276C148.32 362.194 148.32 362.194 111 366c-2.75 2.012-3.728 3.077-4.684 6.316-.362 3.075.145 4.85 1.184 7.747 2.01 5.621 2.01 5.621.5 8.937-1.742 1.3-1.742 1.3-3.875 2.313l-2.117 1.05C100 393 100 393 97 392c-4.698-7.212-4.962-15.69-4-24 1.663-6.198 5.554-10.713 11-14 25.484-12.822 60.482.031 85.442 8.118 2.556.881 5.057 1.856 7.558 2.882l.445-2.875c4.52-27.94 11.166-64.285 35.43-82.187 6.522-4.044 14.627-4.49 21.887-1.985m-18.64 15.692c-15.407 15.767-20.262 40.225-24.622 61.043l-.811 3.854c-1.53 6.271-1.53 6.271-.689 12.458 1.732 1.136 1.732 1.136 3.91 2.016l2.473 1.097q2.722 1.155 5.451 2.292c4.28 1.8 8.255 3.512 12.033 6.232 3.959 2.67 7.24 4.566 12.133 4.363 9.18-2.775 17.608-7.54 25.91-12.263 2.988-1.68 6.013-3.23 9.09-4.737-6.222-42.68-6.222-42.68-29.125-78-6.19-4.306-10.13-3.278-15.754 1.645m88.003 62.418c-2.58 3.566-3.28 5.531-3.125 9.937 1.727 3.027 3.84 5.42 7 7 4.197.572 5.72.185 9.313-2.187 2.734-2.54 2.734-2.54 3.75-5.25-.106-4.33-1.9-7.316-4.813-10.438-4.57-2.285-8.012-2.013-12.125.938M207 384c-1.321 8.742-2.332 17.137-2 26 8.856-4.695 17.436-9.799 26-15-2.646-2.094-5.176-3.676-8.258-5.043l-2.394-1.064-2.473-1.08-2.496-1.116c-4.044-1.968-4.044-1.968-8.379-2.697m64.5 3.875-2.996 1.395-2.848 1.347-2.63 1.238c-2.177.982-2.177.982-3.026 3.145l1.557.854q3.536 1.945 7.068 3.896l2.45 1.344c4.45 2.46 8.743 5.01 12.925 7.906l2-1-3-25c-3.641 0-8.26 3.342-11.5 4.875m-32.164 15.617c-.95.536-1.9 1.072-2.88 1.623l-3.081 1.76-3.126 1.781c-6.227 3.568-12.436 7.165-18.561 10.906l-1.99 1.19c-3.354 2.087-5.255 3.571-6.698 7.248-.318 2.1-.318 2.1-.306 4.322l-.049 2.559-.016 2.74c-.01.937-.018 1.874-.027 2.84q-.022 2.968-.028 5.938a712 712 0 0 1-.111 9.072q-.015 2.888-.022 5.775l-.059 2.734c.032 4.384.122 6.377 2.868 9.939 2.398 1.815 4.746 3.554 7.305 5.132l2.592 1.607 2.728 1.654 2.812 1.718c5.571 3.376 11.17 6.701 16.875 9.845l1.818 1.029c3.127 1.723 3.127 1.723 6.593 1.771 3.33-1.11 6.375-2.78 9.464-4.425l2.204-1.17c6.413-3.465 12.652-7.197 18.859-11.017l2.806-1.72 2.6-1.62 2.323-1.445c1.91-1.17 1.91-1.17 2.771-3.278a67 67 0 0 0 .193-4.279l.049-2.68c.044-4.048.085-8.095.108-12.143q.025-3.202.082-6.405c.055-3.077.077-6.153.091-9.231l.07-2.886c-.015-4.518-.05-6.664-2.857-10.343-2.313-1.718-4.557-3.365-7.037-4.83l-2.44-1.454-2.572-1.499-2.657-1.57A1343 1343 0 0 0 262 410l-2.463-1.43a1144 1144 0 0 0-6.662-3.82l-2.025-1.16c-5.154-2.895-6.443-2.963-11.514-.098M119 411c-1.61 2.73-2.016 4.346-1.937 7.5 1.306 3.484 3.043 5.185 5.937 7.5 3.603 1.201 5.203 1.352 8.688-.187 3.173-2.48 3.173-2.48 5.312-5.813 0-4.324-.558-6.42-3.187-9.875-5.747-4.342-9.43-3.774-14.813.875m64.313 27.688-1.858 1.318c-3.968 2.84-7.741 5.828-11.455 8.994 3.59 3.957 7.793 6.774 12.188 9.75l2.232 1.535c3.053 2.489 3.053 2.489 6.58 3.715v-30c-2.54 0-5.599 3.186-7.687 4.688M300 435v29c5.752-3.196 10.48-5.899 15.563-9.812l3.128-2.395L321 450c-3.754-3.968-7.73-7.168-12.187-10.312l-1.905-1.377c-3.144-2.48-3.144-2.48-6.908-3.311m-147.812 27.75-1.746 1.498c-29.237 24.62-29.237 24.62-45.442 58.127 0 4.02.46 5.56 3 8.625 5.94 5.728 14.423 5.408 22.133 5.36 20.865-.469 45.371-6.681 63.867-16.36 1.18-21.764 1.18-21.764-4.356-42.217-3.29-3.271-7.239-4.966-11.471-6.733-4.063-1.964-7.466-4.881-10.986-7.675-6.837-5.324-8.304-6.418-15-.625m171.351.664c-2.75 2.185-5.588 3.623-8.766 5.11-10.769 5.322-10.769 5.322-17.018 15.116-2.008 9.275-1.912 18.919-1.755 28.36q0 2.488-.012 4.977L296 520c23.254 9.46 56.858 22.636 81.934 13.902 2.86-1.25 4.402-2.225 6.066-4.902 2-7.123.233-12.482-3-19-11.099-18.591-27.052-34.72-44-48l-2.691-2.25c-4.724-3.58-6.935.35-10.77 3.664M205 489q.213 4.532.438 9.063l.119 2.568.127 2.53.11 2.3c.259 3.195.753 6.366 1.206 9.539l24-10c-2.512-2.512-4.305-3.908-7.309-5.629l-2.513-1.447-2.615-1.486-2.604-1.499c-3.614-2.071-7.217-4.105-10.959-5.939m74.063 2.773-2.961 1.75-3.102 1.852-3.102 1.828c-5.257 2.99-5.257 2.99-9.898 6.797 7.533 3.911 14.822 7.603 23 10 1.71-1.71 1.351-4.008 1.535-6.348l.264-3.271.264-3.443.275-3.456q.337-4.24.662-8.482c-2.873 0-4.472 1.314-6.937 2.773m-9.313 69.04c-2.058 2.572-2.672 3.892-2.75 7.187 1.255 3.487 2.438 5.516 5.25 7.938 3.786 1.462 5.873 1.239 9.75.062 3.153-2.484 3.153-2.484 5-6 .158-4.502-.487-6.362-3.312-9.875-5.28-4.175-8.72-3.516-13.938.688m1557.063-218.125 2.447-.088c3.782-.04 6.132.056 9.47 1.943 2.925 3.166 5.353 6.52 7.77 10.082q1.595 2.304 3.191 4.605l1.653 2.393c2.65 3.805 5.37 7.56 8.093 11.315l1.629 2.249 3.28 4.53q4.173 5.763 8.341 11.533l1.473 2.035c4.976 6.884 9.902 13.802 14.84 20.715l1-70c3.297-1.648 6.943-1.143 10.563-1.125l2.404-.012c5.906.01 5.906.01 7.033 1.137.095 1.366.122 2.737.12 4.106l.004 2.682-.01 2.964v3.104c0 3.404-.009 6.807-.016 10.21l-.005 7.058q-.006 9.31-.024 18.619-.014 9.49-.02 18.982-.016 18.637-.049 37.275a644 644 0 0 1-10.21.25l-2.919.102c-7.166.099-7.166.099-10.755-2.194-2.077-2.575-3.554-5.24-5.116-8.158-1.229-1.863-2.506-3.686-3.79-5.511a446 446 0 0 1-4.23-6.157c-3.035-4.443-6.186-8.796-9.355-13.144-5.185-7.123-10.207-14.343-15.136-21.644l-1.516-2.24-1.305-1.937c-2.476-3.513-5.09-6.928-7.668-10.367l-1 71h-21V344c3.366-1.683 7.114-1.269 10.813-1.312m-878.79.144 2.453-.013q3.95-.013 7.899-.007l2.696.002c44.191.082 44.191.082 59.866 13.893 12.003 12.287 11.51 29.315 11.336 45.281-.383 14.302-4.454 26.794-15.023 36.887-10.77 8.703-22.91 10.437-36.281 10.32l-3.312-.006c-4.052-.01-8.105-.038-12.157-.064L938 449V344c3.16-1.58 6.554-1.163 10.023-1.168M960 363v67c22.77 1.503 22.77 1.503 40.813-5.687 8.706-9.205 10.049-21.135 10.187-33.313-.46-8.034-2.876-14.734-8-21-12.058-10.42-27.754-7-43-7m762.633-10.969c9.15 7.61 14.341 18.864 16.082 30.543 1.548 18.601 1.347 38.31-10.84 53.551-8.057 8.763-19.599 13.344-31.362 14.017-18.485.629-35.094.002-49.568-12.986C1636.483 426.2 1633 409.726 1633 395c.683-14.377 3.68-27.46 13.25-38.625 20.033-17.302 54.468-19.69 76.383-4.344M1663 371c-7.265 9.817-7.973 21.132-7 33 1.875 9.365 4.741 17.332 12.813 22.813 8.3 4.698 17.934 5.691 27.19 3.464 7.498-2.519 12.774-5.698 16.747-12.714 5.505-12.079 5.409-26.668 1.395-39.243-3.446-7.453-9.756-12.564-17.27-15.57-12.215-2.364-24.843-.983-33.875 8.25M621.53 342.87l2.03-.005q3.33-.004 6.659.002 2.309 0 4.618-.003 4.842-.002 9.684.006 6.214.006 12.429-.004 4.769-.005 9.538 0l4.583-.002q3.2-.003 6.4.007l3.682.002C684 343 684 343 686 344v19h-51v23h49v20h-50v24h53v19h-74V344c2.868-1.434 5.324-1.127 8.53-1.13M1455 347c1 1 1 1 1.114 2.95l-.016 2.523-.01 2.724-.025 2.865-.014 2.877q-.018 3.53-.049 7.061l-1.703-.38q-3.648-.812-7.297-1.62l-3.816-.852c-12.623-2.606-27.073-4.798-39.184.852-2.98 2.097-4.616 4.353-5.465 7.992-.273 3.537.299 5.748 2.195 8.715 5.092 3.57 10.137 2.946 16.207 2.918 15.205.263 27.165.477 38.376 11.688 5.652 9.001 5.808 19.144 4.062 29.437-2.143 8.056-6.967 13.756-14.008 18.035-17.55 9.007-41.787 6.881-60.367 2.215l-6-2v-19c3.961-1.32 6.804-.202 10.688.875 12.538 3.434 30.355 6.762 42.312.125 3.777-3.116 4.892-4.905 5.375-9.812-.032-3.573-.323-4.122-2.687-7.125-4.027-3.09-6.995-3.197-11.938-3.274l-3.785-.086q-3.918-.077-7.836-.133c-9.722-.239-20.576-.72-28.129-7.57-7.05-9.96-8.095-19.028-7-31 1.875-7.867 5.536-13.538 12.25-18.062 19.891-11.14 45.532-8.68 66.75-2.938m-644.562-4.375 2.603-.074 2.518-.012 2.29-.025c3.186.72 4.135 1.896 6.151 4.486 1.622 3.056 2.965 6.212 4.309 9.398l1.221 2.832a2264 2264 0 0 1 3.908 9.145l2.712 6.309q2.697 6.27 5.38 12.546c2.65 6.197 5.327 12.382 8.012 18.564q2.305 5.312 4.603 10.628 2.908 6.714 5.867 13.406l1.435 3.26q1.323 3.004 2.66 6.002l1.163 2.64 1.018 2.294C867 446 867 446 867 449h-24l-11-27-34-1c.794-4.761 1.648-7.988 3.5-12.312l1.344-3.176C804 403 804 403 805 402c1.34-.156 2.688-.25 4.035-.316l2.451-.127 2.577-.12 2.587-.13q3.175-.159 6.35-.307l-1.102-2.63a6326 6326 0 0 1-4.025-9.65q-.87-2.091-1.746-4.179-1.255-3-2.502-6.002l-1.523-3.65C811 372 811 372 811 370h-2l-.322 2.045c-.82 3.574-2.133 6.859-3.53 10.236-.29.715-.582 1.43-.882 2.166q-1.441 3.529-2.891 7.053-1.004 2.454-2.004 4.909-2.1 5.145-4.204 10.288c-3.219 7.871-6.409 15.754-9.6 23.636l-4.813 11.874L778 449h-23c3.376-10.129 3.376-10.129 5.434-15.008l1.437-3.42 1.567-3.697 1.668-3.96c3.631-8.61 7.293-17.207 10.953-25.806l1.327-3.117q3.269-7.68 6.545-15.356l1.246-2.92 2.421-5.67a581 581 0 0 0 5.454-13.168l.96-2.398q.876-2.2 1.726-4.412c3.102-7.788 7.208-7.432 14.7-7.443m300.062.063 2.918-.05 2.8-.001 2.561-.01c2.792.469 3.415 1.227 5.221 3.373 1.104 2.2 1.104 2.2 2.141 4.797.395.976.79 1.952 1.195 2.958l1.27 3.21 1.342 3.34c1.42 3.542 2.83 7.087 4.24 10.632l2.79 6.967c2.256 5.63 4.502 11.261 6.746 16.895q2.97 7.449 5.952 14.892l1.954 4.885L1153 418c1.763-2.644 2.856-4.888 4.028-7.812l1.195-2.969 1.285-3.219 1.346-3.348q2.14-5.325 4.271-10.652A7312 7312 0 0 1 1176 363l1.224-3.018q1.654-4.058 3.33-8.107l.98-2.406c2.235-5.353 2.235-5.353 4.466-6.469 1.57-.096 3.145-.13 4.719-.133l2.824-.004 2.957.012 2.957-.012 2.824.004 2.596.004C1207 343 1207 343 1209 344c-.588 5.552-2.586 10.04-4.875 15.059l-1.202 2.682a2020 2020 0 0 1-2.576 5.718c-2.288 5.06-4.554 10.13-6.824 15.197l-1.4 3.123c-4.569 10.19-9.046 20.418-13.498 30.659l-2.066 4.745c-3.69 8.48-3.69 8.48-7.33 16.982l-.842 1.981q-1.125 2.655-2.245 5.311C1165 448 1165 448 1164 449a99 99 0 0 1-5.348.098l-3.271-.01-3.444-.026-3.455-.013A2762 2762 0 0 1 1140 449l-1.35-3.233a43627 43627 0 0 0-7.667-18.336 7136 7136 0 0 0-14.198-33.743l-1.284-3.03q-3.057-7.216-6.13-14.428c-4.383-10.322-8.544-20.689-12.371-31.23 4.372-2.915 8.358-2.33 13.5-2.312m-631.437.179 2.414-.004 2.523.012 2.523-.012 2.414.004 2.215.004C493 343 493 343 495 344v86h41v19h-63V344c2.27-1.135 3.543-1.129 6.063-1.133m1062 0 2.414-.004 2.523.012 2.523-.012 2.415.004 2.214.004C1555 343 1555 343 1557 344v105h-22V344c2.27-1.135 3.543-1.129 6.063-1.133m-257 0 2.414-.004 2.523.012 2.523-.012 2.415.004 2.214.004C1298 343 1298 343 1300 344v105h-22V344c2.27-1.135 3.543-1.129 6.063-1.133"/><path fill="#fff" d="M261.188 425.75c7.186 5.75 11.034 11.688 12.128 20.918.365 8.342-1.94 14.735-6.503 21.644-6.993 6.682-14.292 9.088-23.801 8.961-7.806-.708-14.317-3.481-19.578-9.336-5.499-7.43-7.286-14.778-6.434-23.937 1.942-7.67 5.611-14.288 12.434-18.504 11.048-5.762 20.807-5.756 31.754.254M231 443c-1.629 3.258-1.542 6.48-1 10 1.773 4.301 3.989 7.264 7.75 10 5.65 1.738 10.19 2.01 15.563-.625 3.51-3.103 6.217-5.748 7.07-10.516.237-4.657-.409-8.423-2.985-12.351-3.41-3.677-7.644-5.262-12.523-5.945-6.696 1.019-10.002 4.236-13.875 9.437m436 49h8l3 14 5-14h8l5 13 3-13h7c1.455 2.91.636 4.855.04 8.031l-.68 3.645-.735 3.824c-.235 1.262-.47 2.524-.71 3.824-1.772 9.39-1.772 9.39-2.915 11.676h-8l-6-17-2.375 5.688-1.336 3.199A599 599 0 0 0 680 523h-8c-1.495-5.7-2.67-11.374-3.625-17.187l-.406-2.366c-.642-3.857-1.142-7.52-.969-11.447m322 0h8l8 18c2.216-4.8 2.216-4.8 4.427-9.603 1.373-2.957 2.76-5.679 4.573-8.397h7v31h-7l-1-10-4 10h-8l-4-10-1 10h-8q-.037-6.381-.055-12.762-.008-2.173-.02-4.345a1691 1691 0 0 1-.023-6.233l-.016-3.793C988 493 988 493 989 492m69.625 1.563c4.284 4.396 5.528 8.393 5.813 14.375-.191 4.998-1.13 9.198-4.438 13.062-5.816 3.747-12.076 3.545-18.687 2.313-3.89-1.542-5.173-2.747-7.313-6.313-2.736-6.645-2.489-13.317.188-19.937 6.008-6.838 16.478-6.931 24.437-3.5m-16 6.875c-2.403 3.788-2.402 7.197-1.625 11.562 1.377 2.711 1.377 2.711 4 4 3.432.421 5.815.671 8.875-1.062 1.75-3.013 2.007-5.47 2.125-8.938-1.548-4.324-1.548-4.324-5-7-3.465-.377-5.363-.385-8.375 1.438m-87-6.875c4.284 4.396 5.528 8.393 5.813 14.375-.191 4.998-1.13 9.198-4.438 13.062-5.816 3.747-12.076 3.545-18.687 2.313-3.89-1.542-5.173-2.747-7.313-6.313-2.736-6.645-2.489-13.317.188-19.937 6.008-6.838 16.478-6.931 24.437-3.5m-16 6.875c-2.403 3.788-2.402 7.197-1.625 11.562 1.377 2.711 1.377 2.711 4 4 3.432.421 5.815.671 8.875-1.062 1.75-3.013 2.007-5.47 2.125-8.938-1.548-4.324-1.548-4.324-5-7-3.465-.377-5.363-.385-8.375 1.438m-82-6.875c4.284 4.396 5.528 8.393 5.813 14.375-.191 4.998-1.13 9.198-4.438 13.062-5.816 3.747-12.076 3.545-18.687 2.313-3.89-1.542-5.173-2.747-7.313-6.313-2.736-6.645-2.489-13.317.188-19.937 6.008-6.838 16.478-6.931 24.437-3.5m-16 6.875c-2.403 3.788-2.402 7.197-1.625 11.562 1.377 2.711 1.377 2.711 4 4 3.432.421 5.815.671 8.875-1.062 1.75-3.013 2.007-5.47 2.125-8.938-1.548-4.324-1.548-4.324-5-7-3.465-.377-5.363-.385-8.375 1.438m-188-6.875c4.284 4.396 5.528 8.393 5.813 14.375-.191 4.998-1.13 9.198-4.438 13.062-5.816 3.747-12.076 3.545-18.687 2.313-3.89-1.542-5.173-2.747-7.313-6.313-2.736-6.645-2.489-13.317.188-19.937 6.008-6.838 16.478-6.931 24.437-3.5m-16 6.875c-2.403 3.788-2.402 7.197-1.625 11.562 1.377 2.711 1.377 2.711 4 4 3.432.421 5.815.671 8.875-1.062 1.75-3.013 2.007-5.47 2.125-8.938-1.548-4.324-1.548-4.324-5-7-3.465-.377-5.363-.385-8.375 1.438m263.063-8.688 2.435-.062c5.06-.034 8.484.526 12.877 3.312 3.905 4.174 4.31 8.211 4.215 13.844-.487 4.883-1.925 8.679-5.153 12.375-4.557 2.65-8.707 2.211-13.875 2.031l-2.966-.055A487 487 0 0 1 891 523q-.037-6.381-.055-12.762-.008-2.173-.02-4.345a1691 1691 0 0 1-.023-6.233l-.016-3.793c.232-5.852 5.109-4.088 9.802-4.117M899 499v17l4.313.188 2.425.105c2.31-.116 2.31-.116 4.004-1.559 2.154-2.969 2.265-6.14 2.258-9.734-1.086-3.438-1.894-3.93-5-6zm185.25-7.375 2.605-.113c4.488-.063 6.512.018 10.215 2.765 2.11 2.978 2.646 5.06 2.438 8.72-.893 3.524-2.969 5.464-5.508 8.003l1.531 1.863 1.969 2.45 1.969 2.425C1101 520 1101 520 1101 523c-3.573.79-6.455 1-10 0-4.029-4.112-7.783-9.018-8.21-14.895L1083 506l7-2 1-4-9-1v24h-8q-.037-6.381-.055-12.762-.008-2.173-.02-4.345a1691 1691 0 0 1-.023-6.233l-.016-3.793c.233-5.874 5.595-4.165 10.364-4.242m-325 0 2.605-.113c4.488-.063 6.512.018 10.215 2.765 2.11 2.978 2.646 5.06 2.438 8.72-.893 3.524-2.969 5.464-5.508 8.003l1.531 1.863 1.969 2.45 1.969 2.425C776 520 776 520 776 523c-3.573.79-6.455 1-10 0-4.029-4.112-7.783-9.018-8.21-14.895L758 506l7-2 1-4-9-1v24h-8q-.037-6.381-.055-12.762-.008-2.173-.02-4.345a1691 1691 0 0 1-.023-6.233l-.016-3.793c.233-5.874 5.595-4.165 10.364-4.242m-250.687.313L512 492v12h12v-12h8v31h-8v-12h-12v12h-8q-.037-6.381-.055-12.762-.008-2.173-.02-4.345a1691 1691 0 0 1-.023-6.233l-.016-3.793c.168-4.232.318-3.853 4.676-3.93m603.571-.051 2.777.016 2.998.01 3.155.025 3.166.014q3.885.018 7.771.049v7h-15v5h14v7h-14v5h15v7h-23q-.036-6.381-.055-12.762-.008-2.173-.02-4.345a1691 1691 0 0 1-.023-6.233l-.016-3.793c.152-3.816.152-3.816 3.247-3.98m-393-.001 2.777.016 2.998.01 3.155.025 3.166.014q3.885.018 7.771.049v7h-15v5h14v7h-14v5h15v7h-23q-.036-6.381-.055-12.762-.008-2.173-.02-4.345a1691 1691 0 0 1-.023-6.233l-.016-3.793c.152-3.816.152-3.816 3.247-3.98m-172-.001 2.777.016 2.998.01 3.155.025 3.166.014q3.885.018 7.771.049v7h-15v5h14v7h-14v5h15v7h-23q-.036-6.381-.055-12.762-.008-2.173-.02-4.345a1691 1691 0 0 1-.023-6.233l-.016-3.793c.152-3.816.152-3.816 3.247-3.98m56.68-.074 2.486-.038 2.408-.005 2.202-.013c2.433.283 4.013.961 6.091 2.243 2.262 3.662 2.284 6.94 1.59 11.066-1.058 3.467-2.639 4.905-5.59 6.934-3.003.674-5.928.926-9 1l-1-6 2.938-1.312c3.34-1.39 3.34-1.39 4.062-4.688-1.6-1.8-1.6-1.8-8-2v24h-8q-.037-6.381-.055-12.762-.008-2.173-.02-4.345a1691 1691 0 0 1-.023-6.233l-.016-3.793c.234-5.897 5.218-4.05 9.927-4.055m198.504.074 3.03.016 3.272.01 3.444.025 3.455.014q4.241.018 8.482.049v7h-8l.016 2.095q.029 4.671.047 9.342l.025 3.3.01 3.134.016 2.904C816 522 816 522 815 523h-7v-24h-9c-.043-2-.04-4 0-6 1-1 1-1 3.317-1.114m-328 0 3.03.016 3.272.01 3.444.025 3.455.014q4.241.018 8.482.049v7h-8l.016 2.095q.029 4.671.047 9.342l.025 3.3.01 3.134.016 2.904C488 522 488 522 487 523h-7v-24h-9c-.043-2-.04-4 0-6 1-1 1-1 3.317-1.114M319 577h13v13c-9.277.098-9.277.098-12 0-1-1-1-1-1.098-3.723zm-161 0h13v13c-9.277.098-9.277.098-12 0-1-1-1-1-1.098-3.723zm161-268h13v12h-13zm-161 0h13v12h-13zm231 134h12v12h-12zm-300 0h12v12H89z"/></svg>